<svg width="3528" height="288" viewBox="0 0 3528 288" fill="none"
  xmlns="http://www.w3.org/2000/svg">
  <path d="M216 252V288H36V252H0V215.438H72.5625V251.156H179.438V144.281H36V108.562H0V36H36V0H216V36H252V72.5625H179.438V36.8438H72.5625V107.719H216V143.719H252V252H216Z" fill="#fff"/>
  <path d="M540 252V288H360V252H324V36H360V0H540V36H576V252H540ZM503.438 36.8438H396.562V251.156H503.438V36.8438Z" fill="#fff"/>
  <path d="M648 288V0H720.562V251.156H828V288H648Z" fill="#fff"/>
  <path d="M1080 180.281V216.281H936.562V288H864V0H1080V36H1116V180.281H1080ZM1043.44 36.8438H936.562V179.438H1043.44V36.8438Z" fill="#fff"/>
  <path d="M1404 252V288H1224V252H1188V0H1260.56V251.156H1367.44V0H1440V252H1404Z" fill="#fff"/>
  <path d="M1691.44 288V216.281H1655.44V180.281H1619.72V144.281H1584.56V288H1512V0H1584.56V71.7188H1620.56V107.719H1656.28V143.719H1691.44V0H1764V288H1691.44Z" fill="#fff"/>
  <path d="M2015.44 288V216.281H1979.44V144.281H1908.56V288H1836V0H1908.56V107.719H1979.44V71.7188H2015.44V0H2088V72.5625H2052V108.562H2016.28V143.719H2052V215.438H2088V288H2015.44Z" fill="#fff"/>
  <path d="M2375.44 144.562V108.562H2340.56V288H2268V72H2412.28V108H2448V144.562H2375.44Z" fill="#fff"/>
  <path d="M2520 288V252H2484V179.719H2520V143.719H2627.44V108.562H2520V72H2664V108H2700V288H2520ZM2627.44 180.281H2556.56V251.438H2627.44V180.281Z" fill="#fff"/>
  <path d="M2915.44 288V108.562H2844.56V288H2772V72H2952V108H2988V288H2915.44Z" fill="#fff"/>
  <path d="M3203.44 288V216.281H3167.72V180.281H3132.56V288H3060V0H3132.56V143.719H3167.72V71.7188H3240V144.281H3204.28V179.438H3240V215.438H3276V288H3203.44Z" fill="#fff"/>
  <path d="M3492 252V288H3348V252H3312V215.438H3384.56V251.438H3455.44V180.281H3348V144.562H3312V108H3348V72H3528V108.562H3420.28V143.719H3492V179.719H3528V252H3492Z" fill="#fff"/>
</svg>
